<mxfile host="Electron" agent="Mozilla/5.0 (Windows NT 10.0; Win64; x64) AppleWebKit/537.36 (KHTML, like Gecko) draw.io/26.0.4 Chrome/128.0.6613.186 Electron/32.2.5 Safari/537.36" version="26.0.4">
  <diagram name="Page-1" id="oG-FWAksDHUW4PM1FH3p">
    <mxGraphModel dx="954" dy="664" grid="1" gridSize="10" guides="1" tooltips="1" connect="1" arrows="1" fold="1" page="1" pageScale="1" pageWidth="3300" pageHeight="2339" math="0" shadow="0">
      <root>
        <mxCell id="0" />
        <mxCell id="1" parent="0" />
        <mxCell id="bxGsMBWYYnoAQKCJOSJ9-1" value="patient_data" style="whiteSpace=wrap;html=1;align=center;" parent="1" vertex="1">
          <mxGeometry x="390" y="340" width="140" height="60" as="geometry" />
        </mxCell>
        <mxCell id="bxGsMBWYYnoAQKCJOSJ9-2" value="Gender" style="ellipse;whiteSpace=wrap;html=1;align=center;" parent="1" vertex="1">
          <mxGeometry x="70" y="240" width="100" height="40" as="geometry" />
        </mxCell>
        <mxCell id="bxGsMBWYYnoAQKCJOSJ9-3" value="Phone Number" style="ellipse;whiteSpace=wrap;html=1;align=center;" parent="1" vertex="1">
          <mxGeometry x="70" y="320" width="100" height="40" as="geometry" />
        </mxCell>
        <mxCell id="bxGsMBWYYnoAQKCJOSJ9-4" value="Next_of_Kin" style="ellipse;whiteSpace=wrap;html=1;align=center;" parent="1" vertex="1">
          <mxGeometry x="80" y="390" width="100" height="40" as="geometry" />
        </mxCell>
        <mxCell id="bxGsMBWYYnoAQKCJOSJ9-5" value="Location_ID" style="ellipse;whiteSpace=wrap;html=1;align=center;" parent="1" vertex="1">
          <mxGeometry x="80" y="480" width="100" height="40" as="geometry" />
        </mxCell>
        <mxCell id="bxGsMBWYYnoAQKCJOSJ9-6" style="edgeStyle=orthogonalEdgeStyle;rounded=0;orthogonalLoop=1;jettySize=auto;html=1;exitX=0.5;exitY=1;exitDx=0;exitDy=0;" parent="1" source="bxGsMBWYYnoAQKCJOSJ9-4" target="bxGsMBWYYnoAQKCJOSJ9-4" edge="1">
          <mxGeometry relative="1" as="geometry" />
        </mxCell>
        <mxCell id="bxGsMBWYYnoAQKCJOSJ9-7" value="DATE" style="ellipse;whiteSpace=wrap;html=1;align=center;" parent="1" vertex="1">
          <mxGeometry x="230" y="160" width="100" height="40" as="geometry" />
        </mxCell>
        <mxCell id="bxGsMBWYYnoAQKCJOSJ9-8" value="Date of Birth" style="ellipse;whiteSpace=wrap;html=1;align=center;" parent="1" vertex="1">
          <mxGeometry x="30" y="40" width="100" height="40" as="geometry" />
        </mxCell>
        <mxCell id="bxGsMBWYYnoAQKCJOSJ9-9" value="Date Added" style="ellipse;whiteSpace=wrap;html=1;align=center;" parent="1" vertex="1">
          <mxGeometry x="240" y="40" width="100" height="40" as="geometry" />
        </mxCell>
        <mxCell id="bxGsMBWYYnoAQKCJOSJ9-10" value="Update date" style="ellipse;whiteSpace=wrap;html=1;align=center;" parent="1" vertex="1">
          <mxGeometry x="430" y="40" width="100" height="40" as="geometry" />
        </mxCell>
        <mxCell id="bxGsMBWYYnoAQKCJOSJ9-11" value="Patient_ID" style="ellipse;whiteSpace=wrap;html=1;align=center;" parent="1" vertex="1">
          <mxGeometry x="440" y="180" width="100" height="40" as="geometry" />
        </mxCell>
        <mxCell id="bxGsMBWYYnoAQKCJOSJ9-12" value="DATE" style="ellipse;whiteSpace=wrap;html=1;align=center;" parent="1" vertex="1">
          <mxGeometry x="1070" y="160" width="100" height="40" as="geometry" />
        </mxCell>
        <mxCell id="bxGsMBWYYnoAQKCJOSJ9-13" value="F Name" style="ellipse;whiteSpace=wrap;html=1;align=center;" parent="1" vertex="1">
          <mxGeometry x="570" y="100" width="100" height="40" as="geometry" />
        </mxCell>
        <mxCell id="bxGsMBWYYnoAQKCJOSJ9-14" value="L Name" style="ellipse;whiteSpace=wrap;html=1;align=center;" parent="1" vertex="1">
          <mxGeometry x="710" y="110" width="100" height="40" as="geometry" />
        </mxCell>
        <mxCell id="bxGsMBWYYnoAQKCJOSJ9-15" value="HAS" style="shape=rhombus;perimeter=rhombusPerimeter;whiteSpace=wrap;html=1;align=center;" parent="1" vertex="1">
          <mxGeometry x="750" y="340" width="120" height="60" as="geometry" />
        </mxCell>
        <mxCell id="bxGsMBWYYnoAQKCJOSJ9-17" value="name" style="ellipse;shape=doubleEllipse;margin=3;whiteSpace=wrap;html=1;align=center;" parent="1" vertex="1">
          <mxGeometry x="620" y="220" width="100" height="40" as="geometry" />
        </mxCell>
        <mxCell id="bxGsMBWYYnoAQKCJOSJ9-19" value="Date_added" style="ellipse;whiteSpace=wrap;html=1;align=center;" parent="1" vertex="1">
          <mxGeometry x="1100" y="40" width="100" height="40" as="geometry" />
        </mxCell>
        <mxCell id="bxGsMBWYYnoAQKCJOSJ9-20" value="Update_Date" style="ellipse;whiteSpace=wrap;html=1;align=center;" parent="1" vertex="1">
          <mxGeometry x="1230" y="40" width="100" height="40" as="geometry" />
        </mxCell>
        <mxCell id="bxGsMBWYYnoAQKCJOSJ9-21" value="Visit Number" style="ellipse;whiteSpace=wrap;html=1;align=center;fontStyle=4;" parent="1" vertex="1">
          <mxGeometry x="1230" y="210" width="100" height="40" as="geometry" />
        </mxCell>
        <mxCell id="bxGsMBWYYnoAQKCJOSJ9-23" value="Facility ID" style="ellipse;whiteSpace=wrap;html=1;align=center;" parent="1" vertex="1">
          <mxGeometry x="1260" y="280" width="100" height="40" as="geometry" />
        </mxCell>
        <mxCell id="bxGsMBWYYnoAQKCJOSJ9-24" value="Visit_ID" style="ellipse;whiteSpace=wrap;html=1;align=center;" parent="1" vertex="1">
          <mxGeometry x="940" y="240" width="100" height="40" as="geometry" />
        </mxCell>
        <mxCell id="bxGsMBWYYnoAQKCJOSJ9-25" value="visit_date" style="ellipse;whiteSpace=wrap;html=1;align=center;" parent="1" vertex="1">
          <mxGeometry x="930" y="40" width="100" height="40" as="geometry" />
        </mxCell>
        <mxCell id="bxGsMBWYYnoAQKCJOSJ9-26" value="visit_record" style="shape=ext;margin=3;double=1;whiteSpace=wrap;html=1;align=center;" parent="1" vertex="1">
          <mxGeometry x="1090" y="340" width="100" height="70" as="geometry" />
        </mxCell>
        <mxCell id="bxGsMBWYYnoAQKCJOSJ9-27" value="Treatment" style="whiteSpace=wrap;html=1;align=center;" parent="1" vertex="1">
          <mxGeometry x="1530" y="350" width="120" height="60" as="geometry" />
        </mxCell>
        <mxCell id="bxGsMBWYYnoAQKCJOSJ9-28" value="labaratory test" style="whiteSpace=wrap;html=1;align=center;" parent="1" vertex="1">
          <mxGeometry x="1090" y="570" width="100" height="40" as="geometry" />
        </mxCell>
        <mxCell id="bxGsMBWYYnoAQKCJOSJ9-30" value="" style="endArrow=none;html=1;rounded=0;exitX=1;exitY=0.5;exitDx=0;exitDy=0;entryX=0;entryY=0;entryDx=0;entryDy=0;" parent="1" source="bxGsMBWYYnoAQKCJOSJ9-2" target="bxGsMBWYYnoAQKCJOSJ9-1" edge="1">
          <mxGeometry width="50" height="50" relative="1" as="geometry">
            <mxPoint x="370" y="300" as="sourcePoint" />
            <mxPoint x="420" y="250" as="targetPoint" />
          </mxGeometry>
        </mxCell>
        <mxCell id="bxGsMBWYYnoAQKCJOSJ9-31" value="" style="endArrow=none;html=1;rounded=0;entryX=0;entryY=0.25;entryDx=0;entryDy=0;" parent="1" target="bxGsMBWYYnoAQKCJOSJ9-1" edge="1">
          <mxGeometry width="50" height="50" relative="1" as="geometry">
            <mxPoint x="170" y="344" as="sourcePoint" />
            <mxPoint x="420" y="250" as="targetPoint" />
          </mxGeometry>
        </mxCell>
        <mxCell id="bxGsMBWYYnoAQKCJOSJ9-32" value="" style="endArrow=none;html=1;rounded=0;exitX=1;exitY=0.5;exitDx=0;exitDy=0;" parent="1" source="bxGsMBWYYnoAQKCJOSJ9-4" edge="1">
          <mxGeometry width="50" height="50" relative="1" as="geometry">
            <mxPoint x="370" y="300" as="sourcePoint" />
            <mxPoint x="390" y="377" as="targetPoint" />
            <Array as="points" />
          </mxGeometry>
        </mxCell>
        <mxCell id="bxGsMBWYYnoAQKCJOSJ9-36" value="" style="endArrow=none;html=1;rounded=0;exitX=1;exitY=0.5;exitDx=0;exitDy=0;entryX=0;entryY=1;entryDx=0;entryDy=0;" parent="1" source="bxGsMBWYYnoAQKCJOSJ9-5" target="bxGsMBWYYnoAQKCJOSJ9-1" edge="1">
          <mxGeometry width="50" height="50" relative="1" as="geometry">
            <mxPoint x="360" y="340" as="sourcePoint" />
            <mxPoint x="420" y="250" as="targetPoint" />
          </mxGeometry>
        </mxCell>
        <mxCell id="bxGsMBWYYnoAQKCJOSJ9-37" value="" style="endArrow=none;html=1;rounded=0;entryX=0.25;entryY=0;entryDx=0;entryDy=0;exitX=1;exitY=0.5;exitDx=0;exitDy=0;" parent="1" source="bxGsMBWYYnoAQKCJOSJ9-7" target="bxGsMBWYYnoAQKCJOSJ9-1" edge="1">
          <mxGeometry width="50" height="50" relative="1" as="geometry">
            <mxPoint x="330" y="188" as="sourcePoint" />
            <mxPoint x="420" y="250" as="targetPoint" />
          </mxGeometry>
        </mxCell>
        <mxCell id="bxGsMBWYYnoAQKCJOSJ9-38" value="" style="endArrow=none;html=1;rounded=0;entryX=0.39;entryY=1.025;entryDx=0;entryDy=0;entryPerimeter=0;" parent="1" target="bxGsMBWYYnoAQKCJOSJ9-11" edge="1">
          <mxGeometry width="50" height="50" relative="1" as="geometry">
            <mxPoint x="490" y="340" as="sourcePoint" />
            <mxPoint x="420" y="250" as="targetPoint" />
          </mxGeometry>
        </mxCell>
        <mxCell id="bxGsMBWYYnoAQKCJOSJ9-39" value="" style="endArrow=none;html=1;rounded=0;entryX=0.5;entryY=1;entryDx=0;entryDy=0;exitX=0.37;exitY=0.025;exitDx=0;exitDy=0;exitPerimeter=0;" parent="1" source="bxGsMBWYYnoAQKCJOSJ9-17" target="bxGsMBWYYnoAQKCJOSJ9-13" edge="1">
          <mxGeometry width="50" height="50" relative="1" as="geometry">
            <mxPoint x="660" y="210" as="sourcePoint" />
            <mxPoint x="420" y="250" as="targetPoint" />
          </mxGeometry>
        </mxCell>
        <mxCell id="bxGsMBWYYnoAQKCJOSJ9-40" value="" style="endArrow=none;html=1;rounded=0;entryX=0.36;entryY=0.975;entryDx=0;entryDy=0;entryPerimeter=0;exitX=1;exitY=0;exitDx=0;exitDy=0;" parent="1" source="bxGsMBWYYnoAQKCJOSJ9-17" target="bxGsMBWYYnoAQKCJOSJ9-14" edge="1">
          <mxGeometry width="50" height="50" relative="1" as="geometry">
            <mxPoint x="370" y="300" as="sourcePoint" />
            <mxPoint x="420" y="250" as="targetPoint" />
          </mxGeometry>
        </mxCell>
        <mxCell id="bxGsMBWYYnoAQKCJOSJ9-41" value="" style="endArrow=none;html=1;rounded=0;exitX=0;exitY=0.5;exitDx=0;exitDy=0;entryX=1;entryY=0.5;entryDx=0;entryDy=0;" parent="1" source="bxGsMBWYYnoAQKCJOSJ9-15" target="bxGsMBWYYnoAQKCJOSJ9-1" edge="1">
          <mxGeometry width="50" height="50" relative="1" as="geometry">
            <mxPoint x="370" y="300" as="sourcePoint" />
            <mxPoint x="420" y="250" as="targetPoint" />
          </mxGeometry>
        </mxCell>
        <mxCell id="bxGsMBWYYnoAQKCJOSJ9-42" value="" style="endArrow=none;html=1;rounded=0;exitX=0.76;exitY=0.9;exitDx=0;exitDy=0;exitPerimeter=0;entryX=0;entryY=0;entryDx=0;entryDy=0;" parent="1" source="bxGsMBWYYnoAQKCJOSJ9-24" target="bxGsMBWYYnoAQKCJOSJ9-26" edge="1">
          <mxGeometry width="50" height="50" relative="1" as="geometry">
            <mxPoint x="1150" y="300" as="sourcePoint" />
            <mxPoint x="1200" y="250" as="targetPoint" />
          </mxGeometry>
        </mxCell>
        <mxCell id="bxGsMBWYYnoAQKCJOSJ9-43" value="" style="endArrow=none;html=1;rounded=0;exitX=0.42;exitY=0.02;exitDx=0;exitDy=0;exitPerimeter=0;entryX=0.5;entryY=1;entryDx=0;entryDy=0;" parent="1" source="bxGsMBWYYnoAQKCJOSJ9-26" target="bxGsMBWYYnoAQKCJOSJ9-12" edge="1">
          <mxGeometry width="50" height="50" relative="1" as="geometry">
            <mxPoint x="1150" y="300" as="sourcePoint" />
            <mxPoint x="1200" y="250" as="targetPoint" />
          </mxGeometry>
        </mxCell>
        <mxCell id="bxGsMBWYYnoAQKCJOSJ9-44" value="" style="endArrow=none;html=1;rounded=0;" parent="1" edge="1">
          <mxGeometry width="50" height="50" relative="1" as="geometry">
            <mxPoint x="1100" y="160" as="sourcePoint" />
            <mxPoint x="1100" y="160" as="targetPoint" />
            <Array as="points">
              <mxPoint x="1000" y="80" />
            </Array>
          </mxGeometry>
        </mxCell>
        <mxCell id="bxGsMBWYYnoAQKCJOSJ9-45" value="" style="endArrow=none;html=1;rounded=0;exitX=0.5;exitY=1;exitDx=0;exitDy=0;entryX=0.72;entryY=0.05;entryDx=0;entryDy=0;entryPerimeter=0;" parent="1" source="bxGsMBWYYnoAQKCJOSJ9-19" target="bxGsMBWYYnoAQKCJOSJ9-12" edge="1">
          <mxGeometry width="50" height="50" relative="1" as="geometry">
            <mxPoint x="1150" y="300" as="sourcePoint" />
            <mxPoint x="1200" y="250" as="targetPoint" />
          </mxGeometry>
        </mxCell>
        <mxCell id="bxGsMBWYYnoAQKCJOSJ9-48" value="" style="endArrow=none;html=1;rounded=0;entryX=0.5;entryY=1;entryDx=0;entryDy=0;exitX=1;exitY=0.5;exitDx=0;exitDy=0;" parent="1" source="bxGsMBWYYnoAQKCJOSJ9-12" target="bxGsMBWYYnoAQKCJOSJ9-20" edge="1">
          <mxGeometry width="50" height="50" relative="1" as="geometry">
            <mxPoint x="1170" y="170" as="sourcePoint" />
            <mxPoint x="1200" y="250" as="targetPoint" />
          </mxGeometry>
        </mxCell>
        <mxCell id="bxGsMBWYYnoAQKCJOSJ9-49" value="" style="endArrow=none;html=1;rounded=0;exitX=1;exitY=0.5;exitDx=0;exitDy=0;entryX=0;entryY=0.5;entryDx=0;entryDy=0;" parent="1" source="bxGsMBWYYnoAQKCJOSJ9-15" target="bxGsMBWYYnoAQKCJOSJ9-26" edge="1">
          <mxGeometry width="50" height="50" relative="1" as="geometry">
            <mxPoint x="1150" y="300" as="sourcePoint" />
            <mxPoint x="1200" y="250" as="targetPoint" />
          </mxGeometry>
        </mxCell>
        <mxCell id="bxGsMBWYYnoAQKCJOSJ9-50" value="" style="endArrow=none;html=1;rounded=0;exitX=1;exitY=0.5;exitDx=0;exitDy=0;entryX=0;entryY=0.5;entryDx=0;entryDy=0;" parent="1" source="bxGsMBWYYnoAQKCJOSJ9-26" target="bxGsMBWYYnoAQKCJOSJ9-27" edge="1">
          <mxGeometry width="50" height="50" relative="1" as="geometry">
            <mxPoint x="1150" y="300" as="sourcePoint" />
            <mxPoint x="1200" y="250" as="targetPoint" />
          </mxGeometry>
        </mxCell>
        <mxCell id="bxGsMBWYYnoAQKCJOSJ9-52" value="" style="endArrow=none;html=1;rounded=0;entryX=0;entryY=1;entryDx=0;entryDy=0;exitX=0.63;exitY=-0.014;exitDx=0;exitDy=0;exitPerimeter=0;" parent="1" source="bxGsMBWYYnoAQKCJOSJ9-26" target="bxGsMBWYYnoAQKCJOSJ9-21" edge="1">
          <mxGeometry width="50" height="50" relative="1" as="geometry">
            <mxPoint x="1160" y="330" as="sourcePoint" />
            <mxPoint x="1200" y="250" as="targetPoint" />
          </mxGeometry>
        </mxCell>
        <mxCell id="bxGsMBWYYnoAQKCJOSJ9-53" value="" style="endArrow=none;html=1;rounded=0;entryX=0;entryY=0.5;entryDx=0;entryDy=0;exitX=1;exitY=0;exitDx=0;exitDy=0;" parent="1" source="bxGsMBWYYnoAQKCJOSJ9-26" target="bxGsMBWYYnoAQKCJOSJ9-23" edge="1">
          <mxGeometry width="50" height="50" relative="1" as="geometry">
            <mxPoint x="1150" y="300" as="sourcePoint" />
            <mxPoint x="1200" y="250" as="targetPoint" />
          </mxGeometry>
        </mxCell>
        <mxCell id="bxGsMBWYYnoAQKCJOSJ9-54" value="" style="endArrow=none;html=1;rounded=0;exitX=1;exitY=0;exitDx=0;exitDy=0;entryX=0;entryY=1;entryDx=0;entryDy=0;" parent="1" source="bxGsMBWYYnoAQKCJOSJ9-1" target="bxGsMBWYYnoAQKCJOSJ9-17" edge="1">
          <mxGeometry width="50" height="50" relative="1" as="geometry">
            <mxPoint x="500" y="300" as="sourcePoint" />
            <mxPoint x="550" y="250" as="targetPoint" />
          </mxGeometry>
        </mxCell>
        <mxCell id="bxGsMBWYYnoAQKCJOSJ9-55" value="" style="endArrow=none;html=1;rounded=0;entryX=0.69;entryY=0.975;entryDx=0;entryDy=0;entryPerimeter=0;" parent="1" target="bxGsMBWYYnoAQKCJOSJ9-8" edge="1">
          <mxGeometry width="50" height="50" relative="1" as="geometry">
            <mxPoint x="260" y="160" as="sourcePoint" />
            <mxPoint x="550" y="250" as="targetPoint" />
          </mxGeometry>
        </mxCell>
        <mxCell id="bxGsMBWYYnoAQKCJOSJ9-56" value="" style="endArrow=none;html=1;rounded=0;exitX=0.67;exitY=0.05;exitDx=0;exitDy=0;exitPerimeter=0;entryX=0.5;entryY=1;entryDx=0;entryDy=0;" parent="1" source="bxGsMBWYYnoAQKCJOSJ9-7" target="bxGsMBWYYnoAQKCJOSJ9-9" edge="1">
          <mxGeometry width="50" height="50" relative="1" as="geometry">
            <mxPoint x="500" y="300" as="sourcePoint" />
            <mxPoint x="550" y="250" as="targetPoint" />
          </mxGeometry>
        </mxCell>
        <mxCell id="bxGsMBWYYnoAQKCJOSJ9-57" value="" style="endArrow=none;html=1;rounded=0;entryX=0.35;entryY=1;entryDx=0;entryDy=0;entryPerimeter=0;" parent="1" target="bxGsMBWYYnoAQKCJOSJ9-10" edge="1">
          <mxGeometry width="50" height="50" relative="1" as="geometry">
            <mxPoint x="320" y="167" as="sourcePoint" />
            <mxPoint x="550" y="250" as="targetPoint" />
          </mxGeometry>
        </mxCell>
        <mxCell id="bxGsMBWYYnoAQKCJOSJ9-58" value="Treatment Name" style="ellipse;whiteSpace=wrap;html=1;align=center;" parent="1" vertex="1">
          <mxGeometry x="1800" y="150" width="100" height="40" as="geometry" />
        </mxCell>
        <mxCell id="bxGsMBWYYnoAQKCJOSJ9-59" value="Side Effects" style="ellipse;whiteSpace=wrap;html=1;align=center;" parent="1" vertex="1">
          <mxGeometry x="1790" y="80" width="100" height="40" as="geometry" />
        </mxCell>
        <mxCell id="bxGsMBWYYnoAQKCJOSJ9-60" value="Treatment Description" style="ellipse;whiteSpace=wrap;html=1;align=center;" parent="1" vertex="1">
          <mxGeometry x="1800" y="220" width="100" height="40" as="geometry" />
        </mxCell>
        <mxCell id="bxGsMBWYYnoAQKCJOSJ9-61" value="Date Added" style="ellipse;whiteSpace=wrap;html=1;align=center;" parent="1" vertex="1">
          <mxGeometry x="1460" y="50" width="100" height="40" as="geometry" />
        </mxCell>
        <mxCell id="bxGsMBWYYnoAQKCJOSJ9-62" value="treatment ID" style="ellipse;whiteSpace=wrap;html=1;align=center;" parent="1" vertex="1">
          <mxGeometry x="1400" y="200" width="100" height="40" as="geometry" />
        </mxCell>
        <mxCell id="bxGsMBWYYnoAQKCJOSJ9-63" value="Update Date" style="ellipse;whiteSpace=wrap;html=1;align=center;" parent="1" vertex="1">
          <mxGeometry x="1660" y="50" width="100" height="40" as="geometry" />
        </mxCell>
        <mxCell id="bxGsMBWYYnoAQKCJOSJ9-64" value="Date" style="ellipse;shape=doubleEllipse;margin=3;whiteSpace=wrap;html=1;align=center;" parent="1" vertex="1">
          <mxGeometry x="1580" y="160" width="100" height="40" as="geometry" />
        </mxCell>
        <mxCell id="bxGsMBWYYnoAQKCJOSJ9-65" value="Dosage" style="ellipse;whiteSpace=wrap;html=1;align=center;" parent="1" vertex="1">
          <mxGeometry x="1810" y="270" width="100" height="40" as="geometry" />
        </mxCell>
        <mxCell id="bxGsMBWYYnoAQKCJOSJ9-66" value="side effects" style="ellipse;whiteSpace=wrap;html=1;align=center;" parent="1" vertex="1">
          <mxGeometry x="1400" y="290" width="100" height="40" as="geometry" />
        </mxCell>
        <mxCell id="bxGsMBWYYnoAQKCJOSJ9-69" value="" style="endArrow=none;html=1;rounded=0;exitX=0.97;exitY=0.725;exitDx=0;exitDy=0;exitPerimeter=0;entryX=0;entryY=0;entryDx=0;entryDy=0;" parent="1" source="bxGsMBWYYnoAQKCJOSJ9-66" target="bxGsMBWYYnoAQKCJOSJ9-27" edge="1">
          <mxGeometry width="50" height="50" relative="1" as="geometry">
            <mxPoint x="1770" y="300" as="sourcePoint" />
            <mxPoint x="1820" y="250" as="targetPoint" />
          </mxGeometry>
        </mxCell>
        <mxCell id="bxGsMBWYYnoAQKCJOSJ9-70" value="" style="endArrow=none;html=1;rounded=0;exitX=0.94;exitY=0.725;exitDx=0;exitDy=0;exitPerimeter=0;entryX=0.25;entryY=0;entryDx=0;entryDy=0;" parent="1" source="bxGsMBWYYnoAQKCJOSJ9-62" target="bxGsMBWYYnoAQKCJOSJ9-27" edge="1">
          <mxGeometry width="50" height="50" relative="1" as="geometry">
            <mxPoint x="1770" y="300" as="sourcePoint" />
            <mxPoint x="1820" y="250" as="targetPoint" />
          </mxGeometry>
        </mxCell>
        <mxCell id="bxGsMBWYYnoAQKCJOSJ9-71" value="" style="endArrow=none;html=1;rounded=0;exitX=0.608;exitY=-0.017;exitDx=0;exitDy=0;exitPerimeter=0;entryX=0.5;entryY=1;entryDx=0;entryDy=0;" parent="1" source="bxGsMBWYYnoAQKCJOSJ9-27" target="bxGsMBWYYnoAQKCJOSJ9-64" edge="1">
          <mxGeometry width="50" height="50" relative="1" as="geometry">
            <mxPoint x="1770" y="300" as="sourcePoint" />
            <mxPoint x="1820" y="250" as="targetPoint" />
          </mxGeometry>
        </mxCell>
        <mxCell id="bxGsMBWYYnoAQKCJOSJ9-72" value="" style="endArrow=none;html=1;rounded=0;exitX=0.75;exitY=0;exitDx=0;exitDy=0;entryX=0;entryY=0.5;entryDx=0;entryDy=0;" parent="1" source="bxGsMBWYYnoAQKCJOSJ9-27" target="bxGsMBWYYnoAQKCJOSJ9-59" edge="1">
          <mxGeometry width="50" height="50" relative="1" as="geometry">
            <mxPoint x="1770" y="300" as="sourcePoint" />
            <mxPoint x="1820" y="250" as="targetPoint" />
          </mxGeometry>
        </mxCell>
        <mxCell id="bxGsMBWYYnoAQKCJOSJ9-73" value="" style="endArrow=none;html=1;rounded=0;exitX=0.5;exitY=1;exitDx=0;exitDy=0;entryX=0;entryY=0;entryDx=0;entryDy=0;" parent="1" source="bxGsMBWYYnoAQKCJOSJ9-61" target="bxGsMBWYYnoAQKCJOSJ9-64" edge="1">
          <mxGeometry width="50" height="50" relative="1" as="geometry">
            <mxPoint x="1770" y="300" as="sourcePoint" />
            <mxPoint x="1820" y="250" as="targetPoint" />
          </mxGeometry>
        </mxCell>
        <mxCell id="bxGsMBWYYnoAQKCJOSJ9-74" value="" style="endArrow=none;html=1;rounded=0;exitX=1;exitY=0;exitDx=0;exitDy=0;entryX=0.5;entryY=1;entryDx=0;entryDy=0;" parent="1" source="bxGsMBWYYnoAQKCJOSJ9-64" target="bxGsMBWYYnoAQKCJOSJ9-63" edge="1">
          <mxGeometry width="50" height="50" relative="1" as="geometry">
            <mxPoint x="1770" y="300" as="sourcePoint" />
            <mxPoint x="1820" y="250" as="targetPoint" />
          </mxGeometry>
        </mxCell>
        <mxCell id="bxGsMBWYYnoAQKCJOSJ9-75" value="" style="endArrow=none;html=1;rounded=0;entryX=0;entryY=0.5;entryDx=0;entryDy=0;" parent="1" target="bxGsMBWYYnoAQKCJOSJ9-58" edge="1">
          <mxGeometry width="50" height="50" relative="1" as="geometry">
            <mxPoint x="1640" y="350" as="sourcePoint" />
            <mxPoint x="1820" y="250" as="targetPoint" />
          </mxGeometry>
        </mxCell>
        <mxCell id="bxGsMBWYYnoAQKCJOSJ9-76" value="" style="endArrow=none;html=1;rounded=0;exitX=1;exitY=0;exitDx=0;exitDy=0;entryX=0;entryY=0.5;entryDx=0;entryDy=0;" parent="1" source="bxGsMBWYYnoAQKCJOSJ9-27" target="bxGsMBWYYnoAQKCJOSJ9-60" edge="1">
          <mxGeometry width="50" height="50" relative="1" as="geometry">
            <mxPoint x="1770" y="300" as="sourcePoint" />
            <mxPoint x="1820" y="250" as="targetPoint" />
          </mxGeometry>
        </mxCell>
        <mxCell id="bxGsMBWYYnoAQKCJOSJ9-77" value="" style="endArrow=none;html=1;rounded=0;exitX=1;exitY=0.25;exitDx=0;exitDy=0;entryX=0;entryY=0.5;entryDx=0;entryDy=0;" parent="1" source="bxGsMBWYYnoAQKCJOSJ9-27" target="bxGsMBWYYnoAQKCJOSJ9-65" edge="1">
          <mxGeometry width="50" height="50" relative="1" as="geometry">
            <mxPoint x="1690" y="380" as="sourcePoint" />
            <mxPoint x="1820" y="250" as="targetPoint" />
          </mxGeometry>
        </mxCell>
        <mxCell id="bxGsMBWYYnoAQKCJOSJ9-82" value="" style="endArrow=none;html=1;rounded=0;exitX=0.5;exitY=0;exitDx=0;exitDy=0;" parent="1" source="bxGsMBWYYnoAQKCJOSJ9-28" target="bxGsMBWYYnoAQKCJOSJ9-26" edge="1">
          <mxGeometry width="50" height="50" relative="1" as="geometry">
            <mxPoint x="1210" y="580" as="sourcePoint" />
            <mxPoint x="1260" y="530" as="targetPoint" />
          </mxGeometry>
        </mxCell>
        <mxCell id="bxGsMBWYYnoAQKCJOSJ9-85" value="Technician ID" style="ellipse;whiteSpace=wrap;html=1;align=center;" parent="1" vertex="1">
          <mxGeometry x="1180" y="440" width="100" height="40" as="geometry" />
        </mxCell>
        <mxCell id="bxGsMBWYYnoAQKCJOSJ9-86" value="Test Date" style="ellipse;whiteSpace=wrap;html=1;align=center;" parent="1" vertex="1">
          <mxGeometry x="1330" y="730" width="100" height="40" as="geometry" />
        </mxCell>
        <mxCell id="bxGsMBWYYnoAQKCJOSJ9-87" value="Test Result" style="ellipse;whiteSpace=wrap;html=1;align=center;" parent="1" vertex="1">
          <mxGeometry x="1320" y="660" width="100" height="40" as="geometry" />
        </mxCell>
        <mxCell id="bxGsMBWYYnoAQKCJOSJ9-88" value="Case ID" style="ellipse;whiteSpace=wrap;html=1;align=center;" parent="1" vertex="1">
          <mxGeometry x="1320" y="600" width="100" height="40" as="geometry" />
        </mxCell>
        <mxCell id="bxGsMBWYYnoAQKCJOSJ9-89" value="Test type&amp;nbsp;" style="ellipse;whiteSpace=wrap;html=1;align=center;" parent="1" vertex="1">
          <mxGeometry x="1320" y="520" width="100" height="40" as="geometry" />
        </mxCell>
        <mxCell id="bxGsMBWYYnoAQKCJOSJ9-90" value="Test ID" style="ellipse;whiteSpace=wrap;html=1;align=center;" parent="1" vertex="1">
          <mxGeometry x="1320" y="440" width="100" height="40" as="geometry" />
        </mxCell>
        <mxCell id="bxGsMBWYYnoAQKCJOSJ9-91" value="" style="endArrow=none;html=1;rounded=0;" parent="1" edge="1">
          <mxGeometry width="50" height="50" relative="1" as="geometry">
            <mxPoint x="1150" y="570" as="sourcePoint" />
            <mxPoint x="1210" y="480" as="targetPoint" />
          </mxGeometry>
        </mxCell>
        <mxCell id="bxGsMBWYYnoAQKCJOSJ9-92" value="" style="endArrow=none;html=1;rounded=0;exitX=0.75;exitY=1;exitDx=0;exitDy=0;entryX=0;entryY=0.5;entryDx=0;entryDy=0;" parent="1" source="bxGsMBWYYnoAQKCJOSJ9-28" target="bxGsMBWYYnoAQKCJOSJ9-86" edge="1">
          <mxGeometry width="50" height="50" relative="1" as="geometry">
            <mxPoint x="1200" y="690" as="sourcePoint" />
            <mxPoint x="1250" y="640" as="targetPoint" />
          </mxGeometry>
        </mxCell>
        <mxCell id="bxGsMBWYYnoAQKCJOSJ9-93" value="" style="endArrow=none;html=1;rounded=0;exitX=1;exitY=1;exitDx=0;exitDy=0;entryX=0;entryY=0.5;entryDx=0;entryDy=0;" parent="1" source="bxGsMBWYYnoAQKCJOSJ9-28" target="bxGsMBWYYnoAQKCJOSJ9-87" edge="1">
          <mxGeometry width="50" height="50" relative="1" as="geometry">
            <mxPoint x="1200" y="690" as="sourcePoint" />
            <mxPoint x="1250" y="640" as="targetPoint" />
          </mxGeometry>
        </mxCell>
        <mxCell id="bxGsMBWYYnoAQKCJOSJ9-94" value="" style="endArrow=none;html=1;rounded=0;exitX=0.75;exitY=0;exitDx=0;exitDy=0;entryX=0;entryY=0.5;entryDx=0;entryDy=0;" parent="1" source="bxGsMBWYYnoAQKCJOSJ9-28" target="bxGsMBWYYnoAQKCJOSJ9-90" edge="1">
          <mxGeometry width="50" height="50" relative="1" as="geometry">
            <mxPoint x="1200" y="690" as="sourcePoint" />
            <mxPoint x="1250" y="640" as="targetPoint" />
          </mxGeometry>
        </mxCell>
        <mxCell id="bxGsMBWYYnoAQKCJOSJ9-95" value="" style="endArrow=none;html=1;rounded=0;exitX=1;exitY=0;exitDx=0;exitDy=0;entryX=0;entryY=0.5;entryDx=0;entryDy=0;" parent="1" source="bxGsMBWYYnoAQKCJOSJ9-28" target="bxGsMBWYYnoAQKCJOSJ9-89" edge="1">
          <mxGeometry width="50" height="50" relative="1" as="geometry">
            <mxPoint x="1200" y="690" as="sourcePoint" />
            <mxPoint x="1250" y="640" as="targetPoint" />
          </mxGeometry>
        </mxCell>
        <mxCell id="bxGsMBWYYnoAQKCJOSJ9-96" value="" style="endArrow=none;html=1;rounded=0;exitX=1;exitY=0.5;exitDx=0;exitDy=0;entryX=0;entryY=0.5;entryDx=0;entryDy=0;" parent="1" source="bxGsMBWYYnoAQKCJOSJ9-28" target="bxGsMBWYYnoAQKCJOSJ9-88" edge="1">
          <mxGeometry width="50" height="50" relative="1" as="geometry">
            <mxPoint x="1200" y="690" as="sourcePoint" />
            <mxPoint x="1250" y="640" as="targetPoint" />
          </mxGeometry>
        </mxCell>
        <mxCell id="bxGsMBWYYnoAQKCJOSJ9-99" value="Healthy Facility" style="whiteSpace=wrap;html=1;align=center;" parent="1" vertex="1">
          <mxGeometry x="1070" y="860" width="130" height="60" as="geometry" />
        </mxCell>
        <mxCell id="bxGsMBWYYnoAQKCJOSJ9-100" value="" style="endArrow=none;html=1;rounded=0;exitX=0.577;exitY=-0.017;exitDx=0;exitDy=0;exitPerimeter=0;entryX=0.5;entryY=1;entryDx=0;entryDy=0;" parent="1" source="bxGsMBWYYnoAQKCJOSJ9-99" target="bxGsMBWYYnoAQKCJOSJ9-28" edge="1">
          <mxGeometry width="50" height="50" relative="1" as="geometry">
            <mxPoint x="1340" y="750" as="sourcePoint" />
            <mxPoint x="1390" y="700" as="targetPoint" />
          </mxGeometry>
        </mxCell>
        <mxCell id="bxGsMBWYYnoAQKCJOSJ9-101" value="facility id" style="ellipse;whiteSpace=wrap;html=1;align=center;" parent="1" vertex="1">
          <mxGeometry x="1340" y="800" width="100" height="40" as="geometry" />
        </mxCell>
        <mxCell id="bxGsMBWYYnoAQKCJOSJ9-102" value="Facility Name" style="ellipse;whiteSpace=wrap;html=1;align=center;" parent="1" vertex="1">
          <mxGeometry x="1350" y="870" width="100" height="40" as="geometry" />
        </mxCell>
        <mxCell id="bxGsMBWYYnoAQKCJOSJ9-103" value="location ID" style="ellipse;whiteSpace=wrap;html=1;align=center;" parent="1" vertex="1">
          <mxGeometry x="1340" y="940" width="100" height="40" as="geometry" />
        </mxCell>
        <mxCell id="bxGsMBWYYnoAQKCJOSJ9-104" value="Capacity" style="ellipse;whiteSpace=wrap;html=1;align=center;" parent="1" vertex="1">
          <mxGeometry x="1190" y="780" width="100" height="40" as="geometry" />
        </mxCell>
        <mxCell id="bxGsMBWYYnoAQKCJOSJ9-105" value="Facility type" style="ellipse;whiteSpace=wrap;html=1;align=center;" parent="1" vertex="1">
          <mxGeometry x="1330" y="1010" width="100" height="40" as="geometry" />
        </mxCell>
        <mxCell id="bxGsMBWYYnoAQKCJOSJ9-106" value="Contact detail" style="ellipse;whiteSpace=wrap;html=1;align=center;" parent="1" vertex="1">
          <mxGeometry x="970" y="760" width="100" height="40" as="geometry" />
        </mxCell>
        <mxCell id="bxGsMBWYYnoAQKCJOSJ9-107" value="Facililty Head" style="ellipse;whiteSpace=wrap;html=1;align=center;" parent="1" vertex="1">
          <mxGeometry x="910" y="930" width="100" height="40" as="geometry" />
        </mxCell>
        <mxCell id="bxGsMBWYYnoAQKCJOSJ9-108" value="Date added" style="ellipse;whiteSpace=wrap;html=1;align=center;" parent="1" vertex="1">
          <mxGeometry x="900" y="840" width="100" height="40" as="geometry" />
        </mxCell>
        <mxCell id="bxGsMBWYYnoAQKCJOSJ9-109" value="" style="endArrow=none;html=1;rounded=0;exitX=1;exitY=0.5;exitDx=0;exitDy=0;" parent="1" source="bxGsMBWYYnoAQKCJOSJ9-99" edge="1">
          <mxGeometry width="50" height="50" relative="1" as="geometry">
            <mxPoint x="1340" y="940" as="sourcePoint" />
            <mxPoint x="1350" y="890" as="targetPoint" />
          </mxGeometry>
        </mxCell>
        <mxCell id="bxGsMBWYYnoAQKCJOSJ9-110" value="" style="endArrow=none;html=1;rounded=0;exitX=1;exitY=0.75;exitDx=0;exitDy=0;entryX=0;entryY=0.5;entryDx=0;entryDy=0;" parent="1" source="bxGsMBWYYnoAQKCJOSJ9-99" target="bxGsMBWYYnoAQKCJOSJ9-103" edge="1">
          <mxGeometry width="50" height="50" relative="1" as="geometry">
            <mxPoint x="1340" y="940" as="sourcePoint" />
            <mxPoint x="1390" y="890" as="targetPoint" />
          </mxGeometry>
        </mxCell>
        <mxCell id="bxGsMBWYYnoAQKCJOSJ9-111" value="" style="endArrow=none;html=1;rounded=0;exitX=1;exitY=0.25;exitDx=0;exitDy=0;entryX=0;entryY=1;entryDx=0;entryDy=0;" parent="1" source="bxGsMBWYYnoAQKCJOSJ9-99" target="bxGsMBWYYnoAQKCJOSJ9-101" edge="1">
          <mxGeometry width="50" height="50" relative="1" as="geometry">
            <mxPoint x="1340" y="940" as="sourcePoint" />
            <mxPoint x="1390" y="890" as="targetPoint" />
          </mxGeometry>
        </mxCell>
        <mxCell id="bxGsMBWYYnoAQKCJOSJ9-112" value="" style="endArrow=none;html=1;rounded=0;entryX=0.03;entryY=0.7;entryDx=0;entryDy=0;entryPerimeter=0;" parent="1" source="bxGsMBWYYnoAQKCJOSJ9-99" target="bxGsMBWYYnoAQKCJOSJ9-104" edge="1">
          <mxGeometry width="50" height="50" relative="1" as="geometry">
            <mxPoint x="1340" y="940" as="sourcePoint" />
            <mxPoint x="1390" y="890" as="targetPoint" />
          </mxGeometry>
        </mxCell>
        <mxCell id="bxGsMBWYYnoAQKCJOSJ9-113" value="" style="endArrow=none;html=1;rounded=0;exitX=0.75;exitY=1;exitDx=0;exitDy=0;entryX=0;entryY=0.5;entryDx=0;entryDy=0;" parent="1" source="bxGsMBWYYnoAQKCJOSJ9-99" target="bxGsMBWYYnoAQKCJOSJ9-105" edge="1">
          <mxGeometry width="50" height="50" relative="1" as="geometry">
            <mxPoint x="1340" y="940" as="sourcePoint" />
            <mxPoint x="1390" y="890" as="targetPoint" />
          </mxGeometry>
        </mxCell>
        <mxCell id="bxGsMBWYYnoAQKCJOSJ9-114" value="" style="endArrow=none;html=1;rounded=0;exitX=1;exitY=0.35;exitDx=0;exitDy=0;exitPerimeter=0;entryX=0;entryY=1;entryDx=0;entryDy=0;" parent="1" source="bxGsMBWYYnoAQKCJOSJ9-107" target="bxGsMBWYYnoAQKCJOSJ9-99" edge="1">
          <mxGeometry width="50" height="50" relative="1" as="geometry">
            <mxPoint x="1340" y="940" as="sourcePoint" />
            <mxPoint x="1390" y="890" as="targetPoint" />
          </mxGeometry>
        </mxCell>
        <mxCell id="bxGsMBWYYnoAQKCJOSJ9-116" value="" style="endArrow=none;html=1;rounded=0;exitX=1;exitY=0.5;exitDx=0;exitDy=0;entryX=0;entryY=0.25;entryDx=0;entryDy=0;" parent="1" source="bxGsMBWYYnoAQKCJOSJ9-108" target="bxGsMBWYYnoAQKCJOSJ9-99" edge="1">
          <mxGeometry width="50" height="50" relative="1" as="geometry">
            <mxPoint x="1340" y="940" as="sourcePoint" />
            <mxPoint x="1390" y="890" as="targetPoint" />
          </mxGeometry>
        </mxCell>
        <mxCell id="bxGsMBWYYnoAQKCJOSJ9-117" value="" style="endArrow=none;html=1;rounded=0;exitX=1;exitY=1;exitDx=0;exitDy=0;entryX=0.25;entryY=0;entryDx=0;entryDy=0;" parent="1" source="bxGsMBWYYnoAQKCJOSJ9-106" target="bxGsMBWYYnoAQKCJOSJ9-99" edge="1">
          <mxGeometry width="50" height="50" relative="1" as="geometry">
            <mxPoint x="1340" y="940" as="sourcePoint" />
            <mxPoint x="1390" y="890" as="targetPoint" />
          </mxGeometry>
        </mxCell>
        <mxCell id="bxGsMBWYYnoAQKCJOSJ9-118" value="" style="endArrow=none;html=1;rounded=0;exitX=0.5;exitY=1;exitDx=0;exitDy=0;" parent="1" source="bxGsMBWYYnoAQKCJOSJ9-99" edge="1">
          <mxGeometry width="50" height="50" relative="1" as="geometry">
            <mxPoint x="1340" y="940" as="sourcePoint" />
            <mxPoint x="1140" y="1210" as="targetPoint" />
          </mxGeometry>
        </mxCell>
        <mxCell id="bxGsMBWYYnoAQKCJOSJ9-119" value="Resource" style="whiteSpace=wrap;html=1;align=center;" parent="1" vertex="1">
          <mxGeometry x="1090" y="1210" width="100" height="40" as="geometry" />
        </mxCell>
        <mxCell id="bxGsMBWYYnoAQKCJOSJ9-120" value="" style="endArrow=none;html=1;rounded=0;exitX=0.5;exitY=1;exitDx=0;exitDy=0;" parent="1" source="bxGsMBWYYnoAQKCJOSJ9-119" target="bxGsMBWYYnoAQKCJOSJ9-121" edge="1">
          <mxGeometry width="50" height="50" relative="1" as="geometry">
            <mxPoint x="1340" y="1260" as="sourcePoint" />
            <mxPoint x="1140" y="1520" as="targetPoint" />
          </mxGeometry>
        </mxCell>
        <mxCell id="bxGsMBWYYnoAQKCJOSJ9-121" value="Supply chain" style="whiteSpace=wrap;html=1;align=center;" parent="1" vertex="1">
          <mxGeometry x="1090" y="1500" width="100" height="40" as="geometry" />
        </mxCell>
        <mxCell id="bxGsMBWYYnoAQKCJOSJ9-122" value="" style="endArrow=none;html=1;rounded=0;exitX=0.5;exitY=1;exitDx=0;exitDy=0;" parent="1" source="bxGsMBWYYnoAQKCJOSJ9-123" edge="1">
          <mxGeometry width="50" height="50" relative="1" as="geometry">
            <mxPoint x="1340" y="1640" as="sourcePoint" />
            <mxPoint x="1140" y="1810" as="targetPoint" />
          </mxGeometry>
        </mxCell>
        <mxCell id="bxGsMBWYYnoAQKCJOSJ9-124" value="" style="endArrow=none;html=1;rounded=0;exitX=0.5;exitY=1;exitDx=0;exitDy=0;" parent="1" source="bxGsMBWYYnoAQKCJOSJ9-121" target="bxGsMBWYYnoAQKCJOSJ9-123" edge="1">
          <mxGeometry width="50" height="50" relative="1" as="geometry">
            <mxPoint x="1140" y="1540" as="sourcePoint" />
            <mxPoint x="1140" y="1810" as="targetPoint" />
          </mxGeometry>
        </mxCell>
        <mxCell id="bxGsMBWYYnoAQKCJOSJ9-123" value="User Role" style="whiteSpace=wrap;html=1;align=center;" parent="1" vertex="1">
          <mxGeometry x="1085" y="1810" width="100" height="40" as="geometry" />
        </mxCell>
        <mxCell id="bxGsMBWYYnoAQKCJOSJ9-125" value="Last updated Date" style="ellipse;whiteSpace=wrap;html=1;align=center;" parent="1" vertex="1">
          <mxGeometry x="1500" y="1240" width="100" height="40" as="geometry" />
        </mxCell>
        <mxCell id="bxGsMBWYYnoAQKCJOSJ9-127" value="Resource ID" style="ellipse;whiteSpace=wrap;html=1;align=center;" parent="1" vertex="1">
          <mxGeometry x="1180" y="1080" width="100" height="40" as="geometry" />
        </mxCell>
        <mxCell id="bxGsMBWYYnoAQKCJOSJ9-128" value="Attribute" style="ellipse;whiteSpace=wrap;html=1;align=center;" parent="1" vertex="1">
          <mxGeometry x="940" y="1120" width="100" height="40" as="geometry" />
        </mxCell>
        <mxCell id="bxGsMBWYYnoAQKCJOSJ9-129" value="Update date" style="ellipse;whiteSpace=wrap;html=1;align=center;" parent="1" vertex="1">
          <mxGeometry x="1520" y="1380" width="100" height="40" as="geometry" />
        </mxCell>
        <mxCell id="bxGsMBWYYnoAQKCJOSJ9-130" value="Quantity" style="ellipse;whiteSpace=wrap;html=1;align=center;" parent="1" vertex="1">
          <mxGeometry x="1350" y="1230" width="100" height="40" as="geometry" />
        </mxCell>
        <mxCell id="bxGsMBWYYnoAQKCJOSJ9-131" value="Resource Type" style="ellipse;whiteSpace=wrap;html=1;align=center;" parent="1" vertex="1">
          <mxGeometry x="1340" y="1160" width="100" height="40" as="geometry" />
        </mxCell>
        <mxCell id="bxGsMBWYYnoAQKCJOSJ9-132" value="Facility ID" style="ellipse;whiteSpace=wrap;html=1;align=center;" parent="1" vertex="1">
          <mxGeometry x="1330" y="1090" width="100" height="40" as="geometry" />
        </mxCell>
        <mxCell id="bxGsMBWYYnoAQKCJOSJ9-133" style="edgeStyle=orthogonalEdgeStyle;rounded=0;orthogonalLoop=1;jettySize=auto;html=1;exitX=0.5;exitY=1;exitDx=0;exitDy=0;" parent="1" edge="1">
          <mxGeometry relative="1" as="geometry">
            <mxPoint x="1340" y="1350" as="sourcePoint" />
            <mxPoint x="1340" y="1350" as="targetPoint" />
          </mxGeometry>
        </mxCell>
        <mxCell id="bxGsMBWYYnoAQKCJOSJ9-134" value="" style="endArrow=none;html=1;rounded=0;entryX=0.5;entryY=1;entryDx=0;entryDy=0;exitX=0.5;exitY=1;exitDx=0;exitDy=0;" parent="1" source="bxGsMBWYYnoAQKCJOSJ9-127" target="bxGsMBWYYnoAQKCJOSJ9-127" edge="1">
          <mxGeometry width="50" height="50" relative="1" as="geometry">
            <mxPoint x="1340" y="1040" as="sourcePoint" />
            <mxPoint x="1390" y="990" as="targetPoint" />
            <Array as="points">
              <mxPoint x="1160" y="1210" />
            </Array>
          </mxGeometry>
        </mxCell>
        <mxCell id="bxGsMBWYYnoAQKCJOSJ9-135" value="" style="endArrow=none;html=1;rounded=0;exitX=1;exitY=0.5;exitDx=0;exitDy=0;entryX=0;entryY=0.5;entryDx=0;entryDy=0;" parent="1" source="bxGsMBWYYnoAQKCJOSJ9-119" target="bxGsMBWYYnoAQKCJOSJ9-130" edge="1">
          <mxGeometry width="50" height="50" relative="1" as="geometry">
            <mxPoint x="1340" y="1360" as="sourcePoint" />
            <mxPoint x="1390" y="1310" as="targetPoint" />
          </mxGeometry>
        </mxCell>
        <mxCell id="bxGsMBWYYnoAQKCJOSJ9-136" value="" style="endArrow=none;html=1;rounded=0;exitX=0.75;exitY=1;exitDx=0;exitDy=0;entryX=0.5;entryY=0;entryDx=0;entryDy=0;" parent="1" source="bxGsMBWYYnoAQKCJOSJ9-119" edge="1">
          <mxGeometry width="50" height="50" relative="1" as="geometry">
            <mxPoint x="1340" y="1360" as="sourcePoint" />
            <mxPoint x="1340" y="1310" as="targetPoint" />
          </mxGeometry>
        </mxCell>
        <mxCell id="bxGsMBWYYnoAQKCJOSJ9-137" value="" style="endArrow=none;html=1;rounded=0;exitX=0.96;exitY=0.3;exitDx=0;exitDy=0;entryX=0;entryY=0.5;entryDx=0;entryDy=0;exitPerimeter=0;" parent="1" target="bxGsMBWYYnoAQKCJOSJ9-125" edge="1">
          <mxGeometry width="50" height="50" relative="1" as="geometry">
            <mxPoint x="1386" y="1322" as="sourcePoint" />
            <mxPoint x="1390" y="1310" as="targetPoint" />
          </mxGeometry>
        </mxCell>
        <mxCell id="bxGsMBWYYnoAQKCJOSJ9-138" value="" style="endArrow=none;html=1;rounded=0;exitX=1;exitY=0;exitDx=0;exitDy=0;entryX=0;entryY=0.5;entryDx=0;entryDy=0;" parent="1" source="bxGsMBWYYnoAQKCJOSJ9-119" target="bxGsMBWYYnoAQKCJOSJ9-132" edge="1">
          <mxGeometry width="50" height="50" relative="1" as="geometry">
            <mxPoint x="1340" y="1360" as="sourcePoint" />
            <mxPoint x="1390" y="1310" as="targetPoint" />
          </mxGeometry>
        </mxCell>
        <mxCell id="bxGsMBWYYnoAQKCJOSJ9-139" value="" style="endArrow=none;html=1;rounded=0;exitX=1;exitY=0.25;exitDx=0;exitDy=0;" parent="1" source="bxGsMBWYYnoAQKCJOSJ9-119" target="bxGsMBWYYnoAQKCJOSJ9-131" edge="1">
          <mxGeometry width="50" height="50" relative="1" as="geometry">
            <mxPoint x="1340" y="1360" as="sourcePoint" />
            <mxPoint x="1390" y="1310" as="targetPoint" />
          </mxGeometry>
        </mxCell>
        <mxCell id="bxGsMBWYYnoAQKCJOSJ9-140" value="" style="endArrow=none;html=1;rounded=0;exitX=1;exitY=0.5;exitDx=0;exitDy=0;entryX=0;entryY=0;entryDx=0;entryDy=0;" parent="1" source="bxGsMBWYYnoAQKCJOSJ9-128" target="bxGsMBWYYnoAQKCJOSJ9-119" edge="1">
          <mxGeometry width="50" height="50" relative="1" as="geometry">
            <mxPoint x="1340" y="1360" as="sourcePoint" />
            <mxPoint x="1390" y="1310" as="targetPoint" />
          </mxGeometry>
        </mxCell>
        <mxCell id="bxGsMBWYYnoAQKCJOSJ9-142" value="" style="endArrow=none;html=1;rounded=0;exitX=0.04;exitY=0.325;exitDx=0;exitDy=0;entryX=1;entryY=1;entryDx=0;entryDy=0;exitPerimeter=0;" parent="1" source="bxGsMBWYYnoAQKCJOSJ9-129" edge="1">
          <mxGeometry width="50" height="50" relative="1" as="geometry">
            <mxPoint x="1340" y="1360" as="sourcePoint" />
            <mxPoint x="1375.3553390593274" y="1344.142135623731" as="targetPoint" />
          </mxGeometry>
        </mxCell>
        <mxCell id="bxGsMBWYYnoAQKCJOSJ9-143" value="SHIPPED BY" style="ellipse;whiteSpace=wrap;html=1;align=center;" parent="1" vertex="1">
          <mxGeometry x="1170" y="1350" width="100" height="40" as="geometry" />
        </mxCell>
        <mxCell id="bxGsMBWYYnoAQKCJOSJ9-144" value="expected Arrival" style="ellipse;whiteSpace=wrap;html=1;align=center;" parent="1" vertex="1">
          <mxGeometry x="1000" y="1390" width="100" height="40" as="geometry" />
        </mxCell>
        <mxCell id="bxGsMBWYYnoAQKCJOSJ9-145" value="Date added" style="ellipse;whiteSpace=wrap;html=1;align=center;" parent="1" vertex="1">
          <mxGeometry x="1310" y="2030" width="100" height="40" as="geometry" />
        </mxCell>
        <mxCell id="bxGsMBWYYnoAQKCJOSJ9-146" value="Role ID" style="ellipse;whiteSpace=wrap;html=1;align=center;" parent="1" vertex="1">
          <mxGeometry x="1250" y="1760" width="100" height="40" as="geometry" />
        </mxCell>
        <mxCell id="bxGsMBWYYnoAQKCJOSJ9-148" value="Update Date" style="ellipse;whiteSpace=wrap;html=1;align=center;" parent="1" vertex="1">
          <mxGeometry x="1040" y="2060" width="100" height="40" as="geometry" />
        </mxCell>
        <mxCell id="bxGsMBWYYnoAQKCJOSJ9-149" value="Shipment ID" style="ellipse;whiteSpace=wrap;html=1;align=center;" parent="1" vertex="1">
          <mxGeometry x="1010" y="1600" width="100" height="40" as="geometry" />
        </mxCell>
        <mxCell id="bxGsMBWYYnoAQKCJOSJ9-150" value="Role Name" style="ellipse;whiteSpace=wrap;html=1;align=center;" parent="1" vertex="1">
          <mxGeometry x="1350" y="1830" width="100" height="40" as="geometry" />
        </mxCell>
        <mxCell id="bxGsMBWYYnoAQKCJOSJ9-151" value="Role Description" style="ellipse;whiteSpace=wrap;html=1;align=center;" parent="1" vertex="1">
          <mxGeometry x="1340" y="1910" width="100" height="40" as="geometry" />
        </mxCell>
        <mxCell id="bxGsMBWYYnoAQKCJOSJ9-153" value="Attribute" style="ellipse;whiteSpace=wrap;html=1;align=center;" parent="1" vertex="1">
          <mxGeometry x="1310" y="1600" width="100" height="40" as="geometry" />
        </mxCell>
        <mxCell id="bxGsMBWYYnoAQKCJOSJ9-154" value="Attribute" style="ellipse;whiteSpace=wrap;html=1;align=center;" parent="1" vertex="1">
          <mxGeometry x="1310" y="1600" width="100" height="40" as="geometry" />
        </mxCell>
        <mxCell id="bxGsMBWYYnoAQKCJOSJ9-155" value="Attribute" style="ellipse;whiteSpace=wrap;html=1;align=center;" parent="1" vertex="1">
          <mxGeometry x="1310" y="1600" width="100" height="40" as="geometry" />
        </mxCell>
        <mxCell id="bxGsMBWYYnoAQKCJOSJ9-156" value="Attribute" style="ellipse;whiteSpace=wrap;html=1;align=center;" parent="1" vertex="1">
          <mxGeometry x="1310" y="1600" width="100" height="40" as="geometry" />
        </mxCell>
        <mxCell id="bxGsMBWYYnoAQKCJOSJ9-157" value="QTTY Shipped" style="ellipse;whiteSpace=wrap;html=1;align=center;" parent="1" vertex="1">
          <mxGeometry x="1310" y="1600" width="100" height="40" as="geometry" />
        </mxCell>
        <mxCell id="bxGsMBWYYnoAQKCJOSJ9-158" value="Supply ID" style="ellipse;whiteSpace=wrap;html=1;align=center;" parent="1" vertex="1">
          <mxGeometry x="910" y="1470" width="100" height="40" as="geometry" />
        </mxCell>
        <mxCell id="bxGsMBWYYnoAQKCJOSJ9-159" value="facility ID" style="ellipse;whiteSpace=wrap;html=1;align=center;" parent="1" vertex="1">
          <mxGeometry x="1340" y="1520" width="100" height="40" as="geometry" />
        </mxCell>
        <mxCell id="bxGsMBWYYnoAQKCJOSJ9-160" value="Resource Id" style="ellipse;whiteSpace=wrap;html=1;align=center;" parent="1" vertex="1">
          <mxGeometry x="1330" y="1440" width="100" height="40" as="geometry" />
        </mxCell>
        <mxCell id="bxGsMBWYYnoAQKCJOSJ9-161" value="" style="endArrow=none;html=1;rounded=0;exitX=1;exitY=1;exitDx=0;exitDy=0;entryX=0;entryY=0.5;entryDx=0;entryDy=0;" parent="1" source="bxGsMBWYYnoAQKCJOSJ9-121" target="bxGsMBWYYnoAQKCJOSJ9-157" edge="1">
          <mxGeometry width="50" height="50" relative="1" as="geometry">
            <mxPoint x="1340" y="1650" as="sourcePoint" />
            <mxPoint x="1390" y="1600" as="targetPoint" />
          </mxGeometry>
        </mxCell>
        <mxCell id="bxGsMBWYYnoAQKCJOSJ9-162" value="" style="endArrow=none;html=1;rounded=0;exitX=1;exitY=0.5;exitDx=0;exitDy=0;entryX=0;entryY=0.5;entryDx=0;entryDy=0;" parent="1" source="bxGsMBWYYnoAQKCJOSJ9-121" target="bxGsMBWYYnoAQKCJOSJ9-159" edge="1">
          <mxGeometry width="50" height="50" relative="1" as="geometry">
            <mxPoint x="1340" y="1650" as="sourcePoint" />
            <mxPoint x="1390" y="1600" as="targetPoint" />
          </mxGeometry>
        </mxCell>
        <mxCell id="bxGsMBWYYnoAQKCJOSJ9-163" value="" style="endArrow=none;html=1;rounded=0;exitX=1;exitY=0;exitDx=0;exitDy=0;entryX=0;entryY=0.5;entryDx=0;entryDy=0;" parent="1" source="bxGsMBWYYnoAQKCJOSJ9-121" target="bxGsMBWYYnoAQKCJOSJ9-160" edge="1">
          <mxGeometry width="50" height="50" relative="1" as="geometry">
            <mxPoint x="1340" y="1650" as="sourcePoint" />
            <mxPoint x="1390" y="1600" as="targetPoint" />
          </mxGeometry>
        </mxCell>
        <mxCell id="bxGsMBWYYnoAQKCJOSJ9-164" value="" style="endArrow=none;html=1;rounded=0;exitX=1;exitY=0.5;exitDx=0;exitDy=0;entryX=0;entryY=0.25;entryDx=0;entryDy=0;" parent="1" source="bxGsMBWYYnoAQKCJOSJ9-158" target="bxGsMBWYYnoAQKCJOSJ9-121" edge="1">
          <mxGeometry width="50" height="50" relative="1" as="geometry">
            <mxPoint x="1340" y="1650" as="sourcePoint" />
            <mxPoint x="1390" y="1600" as="targetPoint" />
          </mxGeometry>
        </mxCell>
        <mxCell id="bxGsMBWYYnoAQKCJOSJ9-165" value="" style="endArrow=none;html=1;rounded=0;exitX=0.75;exitY=0;exitDx=0;exitDy=0;entryX=0.5;entryY=1;entryDx=0;entryDy=0;" parent="1" source="bxGsMBWYYnoAQKCJOSJ9-121" target="bxGsMBWYYnoAQKCJOSJ9-143" edge="1">
          <mxGeometry width="50" height="50" relative="1" as="geometry">
            <mxPoint x="1340" y="1650" as="sourcePoint" />
            <mxPoint x="1390" y="1600" as="targetPoint" />
          </mxGeometry>
        </mxCell>
        <mxCell id="bxGsMBWYYnoAQKCJOSJ9-167" value="" style="endArrow=none;html=1;rounded=0;exitX=0.5;exitY=1;exitDx=0;exitDy=0;entryX=0;entryY=0;entryDx=0;entryDy=0;" parent="1" source="bxGsMBWYYnoAQKCJOSJ9-123" edge="1">
          <mxGeometry width="50" height="50" relative="1" as="geometry">
            <mxPoint x="1340" y="2010" as="sourcePoint" />
            <mxPoint x="1184.6446609406726" y="1945.8578643762694" as="targetPoint" />
          </mxGeometry>
        </mxCell>
        <mxCell id="bxGsMBWYYnoAQKCJOSJ9-168" value="" style="endArrow=none;html=1;rounded=0;exitX=1;exitY=0.5;exitDx=0;exitDy=0;entryX=0;entryY=0.5;entryDx=0;entryDy=0;" parent="1" source="bxGsMBWYYnoAQKCJOSJ9-123" target="bxGsMBWYYnoAQKCJOSJ9-146" edge="1">
          <mxGeometry width="50" height="50" relative="1" as="geometry">
            <mxPoint x="1340" y="2010" as="sourcePoint" />
            <mxPoint x="1390" y="1960" as="targetPoint" />
          </mxGeometry>
        </mxCell>
        <mxCell id="bxGsMBWYYnoAQKCJOSJ9-169" value="" style="endArrow=none;html=1;rounded=0;exitX=1;exitY=1;exitDx=0;exitDy=0;entryX=0;entryY=0;entryDx=0;entryDy=0;" parent="1" source="bxGsMBWYYnoAQKCJOSJ9-123" target="bxGsMBWYYnoAQKCJOSJ9-151" edge="1">
          <mxGeometry width="50" height="50" relative="1" as="geometry">
            <mxPoint x="1340" y="2010" as="sourcePoint" />
            <mxPoint x="1390" y="1960" as="targetPoint" />
          </mxGeometry>
        </mxCell>
        <mxCell id="X5Jrdy5C9cMQ52QvuK6L-2" value="Date added" style="ellipse;whiteSpace=wrap;html=1;align=center;" vertex="1" parent="1">
          <mxGeometry x="1500" y="1310" width="100" height="40" as="geometry" />
        </mxCell>
        <mxCell id="X5Jrdy5C9cMQ52QvuK6L-3" value="" style="endArrow=none;html=1;rounded=0;exitX=1;exitY=0.5;exitDx=0;exitDy=0;entryX=0;entryY=0.5;entryDx=0;entryDy=0;" edge="1" parent="1" target="X5Jrdy5C9cMQ52QvuK6L-2">
          <mxGeometry width="50" height="50" relative="1" as="geometry">
            <mxPoint x="1390" y="1330" as="sourcePoint" />
            <mxPoint x="1340" y="1130" as="targetPoint" />
          </mxGeometry>
        </mxCell>
        <mxCell id="X5Jrdy5C9cMQ52QvuK6L-4" value="DATE" style="ellipse;shape=doubleEllipse;margin=3;whiteSpace=wrap;html=1;align=center;" vertex="1" parent="1">
          <mxGeometry x="1310" y="1310" width="100" height="40" as="geometry" />
        </mxCell>
        <mxCell id="X5Jrdy5C9cMQ52QvuK6L-5" value="update Date" style="ellipse;whiteSpace=wrap;html=1;align=center;" vertex="1" parent="1">
          <mxGeometry x="910" y="1550" width="100" height="40" as="geometry" />
        </mxCell>
        <mxCell id="X5Jrdy5C9cMQ52QvuK6L-6" value="" style="endArrow=none;html=1;rounded=0;exitX=1;exitY=0.5;exitDx=0;exitDy=0;entryX=0;entryY=1;entryDx=0;entryDy=0;" edge="1" parent="1" source="X5Jrdy5C9cMQ52QvuK6L-5" target="bxGsMBWYYnoAQKCJOSJ9-121">
          <mxGeometry width="50" height="50" relative="1" as="geometry">
            <mxPoint x="1290" y="1560" as="sourcePoint" />
            <mxPoint x="1340" y="1510" as="targetPoint" />
          </mxGeometry>
        </mxCell>
        <mxCell id="X5Jrdy5C9cMQ52QvuK6L-7" value="" style="endArrow=none;html=1;rounded=0;exitX=1;exitY=1;exitDx=0;exitDy=0;entryX=0.25;entryY=0;entryDx=0;entryDy=0;" edge="1" parent="1" source="bxGsMBWYYnoAQKCJOSJ9-144" target="bxGsMBWYYnoAQKCJOSJ9-121">
          <mxGeometry width="50" height="50" relative="1" as="geometry">
            <mxPoint x="1290" y="1560" as="sourcePoint" />
            <mxPoint x="1340" y="1510" as="targetPoint" />
          </mxGeometry>
        </mxCell>
        <mxCell id="X5Jrdy5C9cMQ52QvuK6L-8" value="" style="endArrow=none;html=1;rounded=0;exitX=1;exitY=0.75;exitDx=0;exitDy=0;entryX=0;entryY=0.5;entryDx=0;entryDy=0;" edge="1" parent="1" source="bxGsMBWYYnoAQKCJOSJ9-123" target="bxGsMBWYYnoAQKCJOSJ9-150">
          <mxGeometry width="50" height="50" relative="1" as="geometry">
            <mxPoint x="1290" y="1900" as="sourcePoint" />
            <mxPoint x="1340" y="1850" as="targetPoint" />
          </mxGeometry>
        </mxCell>
        <mxCell id="X5Jrdy5C9cMQ52QvuK6L-9" value="" style="endArrow=none;html=1;rounded=0;exitX=0.5;exitY=0;exitDx=0;exitDy=0;entryX=0.5;entryY=1;entryDx=0;entryDy=0;" edge="1" parent="1" source="bxGsMBWYYnoAQKCJOSJ9-148">
          <mxGeometry width="50" height="50" relative="1" as="geometry">
            <mxPoint x="1290" y="1900" as="sourcePoint" />
            <mxPoint x="1220" y="1980" as="targetPoint" />
          </mxGeometry>
        </mxCell>
        <mxCell id="X5Jrdy5C9cMQ52QvuK6L-10" value="" style="endArrow=none;html=1;rounded=0;exitX=1;exitY=1;exitDx=0;exitDy=0;entryX=0.5;entryY=0;entryDx=0;entryDy=0;" edge="1" parent="1" target="bxGsMBWYYnoAQKCJOSJ9-145">
          <mxGeometry width="50" height="50" relative="1" as="geometry">
            <mxPoint x="1255.3553390593274" y="1974.142135623731" as="sourcePoint" />
            <mxPoint x="1340" y="1850" as="targetPoint" />
          </mxGeometry>
        </mxCell>
        <mxCell id="X5Jrdy5C9cMQ52QvuK6L-11" value="" style="endArrow=none;html=1;rounded=0;exitX=0.5;exitY=0;exitDx=0;exitDy=0;entryX=0.25;entryY=1;entryDx=0;entryDy=0;" edge="1" parent="1" source="bxGsMBWYYnoAQKCJOSJ9-149" target="bxGsMBWYYnoAQKCJOSJ9-121">
          <mxGeometry width="50" height="50" relative="1" as="geometry">
            <mxPoint x="1290" y="1590" as="sourcePoint" />
            <mxPoint x="1340" y="1540" as="targetPoint" />
          </mxGeometry>
        </mxCell>
        <mxCell id="X5Jrdy5C9cMQ52QvuK6L-12" value="Date" style="ellipse;shape=doubleEllipse;margin=3;whiteSpace=wrap;html=1;align=center;" vertex="1" parent="1">
          <mxGeometry x="1170" y="1940" width="100" height="40" as="geometry" />
        </mxCell>
      </root>
    </mxGraphModel>
  </diagram>
</mxfile>
